<mxfile host="app.diagrams.net" agent="Mozilla/5.0 (Windows NT 10.0; Win64; x64) AppleWebKit/537.36 (KHTML, like Gecko) Chrome/127.0.0.0 Safari/537.36" version="24.7.7">
  <diagram name="Page-1" id="Dektj3tARaeNkvaTHpeQ">
    <mxGraphModel dx="3078" dy="1044" grid="0" gridSize="10" guides="1" tooltips="1" connect="1" arrows="1" fold="1" page="1" pageScale="1" pageWidth="1169" pageHeight="827" math="0" shadow="0">
      <root>
        <mxCell id="0" />
        <mxCell id="1" parent="0" />
        <mxCell id="QwGlDeZlxbwuZ_G16_js-1" value="&lt;b&gt;&lt;font style=&quot;font-size: 18px;&quot;&gt;Diagramme de cas d’utilisation ”s’inscrire”-”s’authentifier”&lt;/font&gt;&lt;/b&gt;" style="shape=umlFrame;whiteSpace=wrap;html=1;pointerEvents=0;width=530;height=40;" vertex="1" parent="1">
          <mxGeometry x="160" y="40" width="770" height="760" as="geometry" />
        </mxCell>
        <mxCell id="QwGlDeZlxbwuZ_G16_js-19" style="rounded=0;orthogonalLoop=1;jettySize=auto;html=1;exitX=0.5;exitY=0.5;exitDx=0;exitDy=0;exitPerimeter=0;entryX=1;entryY=0.5;entryDx=0;entryDy=0;endArrow=none;endFill=0;" edge="1" parent="1" source="QwGlDeZlxbwuZ_G16_js-2" target="QwGlDeZlxbwuZ_G16_js-9">
          <mxGeometry relative="1" as="geometry" />
        </mxCell>
        <mxCell id="QwGlDeZlxbwuZ_G16_js-2" value="&lt;b&gt;&lt;font style=&quot;font-size: 18px;&quot;&gt;Chef de stocks&lt;/font&gt;&lt;/b&gt;" style="shape=umlActor;verticalLabelPosition=bottom;verticalAlign=top;html=1;" vertex="1" parent="1">
          <mxGeometry x="1010" y="125" width="30" height="60" as="geometry" />
        </mxCell>
        <mxCell id="QwGlDeZlxbwuZ_G16_js-3" value="&lt;font style=&quot;font-size: 18px;&quot;&gt;&lt;b&gt;Employé&lt;/b&gt;&lt;/font&gt;" style="shape=umlActor;verticalLabelPosition=bottom;verticalAlign=top;html=1;" vertex="1" parent="1">
          <mxGeometry x="1010" y="360" width="30" height="60" as="geometry" />
        </mxCell>
        <mxCell id="QwGlDeZlxbwuZ_G16_js-16" style="rounded=0;orthogonalLoop=1;jettySize=auto;html=1;exitX=0.5;exitY=0.5;exitDx=0;exitDy=0;exitPerimeter=0;entryX=0;entryY=0.5;entryDx=0;entryDy=0;endArrow=none;endFill=0;" edge="1" parent="1" source="QwGlDeZlxbwuZ_G16_js-4" target="QwGlDeZlxbwuZ_G16_js-9">
          <mxGeometry relative="1" as="geometry" />
        </mxCell>
        <mxCell id="QwGlDeZlxbwuZ_G16_js-18" style="rounded=0;orthogonalLoop=1;jettySize=auto;html=1;exitX=0.5;exitY=0.5;exitDx=0;exitDy=0;exitPerimeter=0;endArrow=none;endFill=0;" edge="1" parent="1" source="QwGlDeZlxbwuZ_G16_js-4">
          <mxGeometry relative="1" as="geometry">
            <mxPoint x="479.99999999999955" y="330" as="targetPoint" />
          </mxGeometry>
        </mxCell>
        <mxCell id="QwGlDeZlxbwuZ_G16_js-4" value="&lt;font style=&quot;font-size: 18px;&quot;&gt;&lt;b&gt;Chef de produit&lt;/b&gt;&lt;/font&gt;" style="shape=umlActor;verticalLabelPosition=bottom;verticalAlign=top;html=1;" vertex="1" parent="1">
          <mxGeometry x="50" y="125" width="30" height="60" as="geometry" />
        </mxCell>
        <mxCell id="QwGlDeZlxbwuZ_G16_js-17" style="rounded=0;orthogonalLoop=1;jettySize=auto;html=1;exitX=0.5;exitY=0.5;exitDx=0;exitDy=0;exitPerimeter=0;entryX=0;entryY=0.5;entryDx=0;entryDy=0;endArrow=none;endFill=0;" edge="1" parent="1" source="QwGlDeZlxbwuZ_G16_js-5" target="QwGlDeZlxbwuZ_G16_js-8">
          <mxGeometry relative="1" as="geometry" />
        </mxCell>
        <mxCell id="QwGlDeZlxbwuZ_G16_js-5" value="&lt;font style=&quot;font-size: 18px;&quot;&gt;&lt;b&gt;Administrateur&lt;/b&gt;&lt;/font&gt;" style="shape=umlActor;verticalLabelPosition=bottom;verticalAlign=top;html=1;" vertex="1" parent="1">
          <mxGeometry x="50" y="510" width="30" height="60" as="geometry" />
        </mxCell>
        <mxCell id="QwGlDeZlxbwuZ_G16_js-6" value="&lt;font style=&quot;font-size: 18px;&quot;&gt;&lt;b&gt;Fournir le mot de passe&amp;nbsp;&lt;/b&gt;&lt;/font&gt;" style="ellipse;whiteSpace=wrap;html=1;" vertex="1" parent="1">
          <mxGeometry x="500" y="670" width="190" height="70" as="geometry" />
        </mxCell>
        <mxCell id="QwGlDeZlxbwuZ_G16_js-7" value="&lt;font style=&quot;font-size: 18px;&quot;&gt;&lt;b&gt;authentifier avec google&lt;/b&gt;&lt;/font&gt;" style="ellipse;whiteSpace=wrap;html=1;" vertex="1" parent="1">
          <mxGeometry x="720" y="515" width="140" height="70" as="geometry" />
        </mxCell>
        <mxCell id="QwGlDeZlxbwuZ_G16_js-8" value="&lt;font style=&quot;font-size: 18px;&quot;&gt;&lt;b&gt;S&#39;authentifier&lt;/b&gt;&lt;/font&gt;" style="ellipse;whiteSpace=wrap;html=1;" vertex="1" parent="1">
          <mxGeometry x="480" y="310" width="140" height="70" as="geometry" />
        </mxCell>
        <mxCell id="QwGlDeZlxbwuZ_G16_js-23" style="edgeStyle=orthogonalEdgeStyle;rounded=0;orthogonalLoop=1;jettySize=auto;html=1;exitX=0.5;exitY=1;exitDx=0;exitDy=0;entryX=0.5;entryY=0;entryDx=0;entryDy=0;dashed=1;dashPattern=8 8;endArrow=open;endFill=0;strokeWidth=1;endSize=20;" edge="1" parent="1" source="QwGlDeZlxbwuZ_G16_js-9" target="QwGlDeZlxbwuZ_G16_js-8">
          <mxGeometry relative="1" as="geometry" />
        </mxCell>
        <mxCell id="QwGlDeZlxbwuZ_G16_js-28" value="&lt;font style=&quot;font-size: 18px;&quot;&gt;&amp;lt;&amp;lt;extend&amp;gt;&amp;gt;&lt;/font&gt;" style="edgeLabel;html=1;align=center;verticalAlign=middle;resizable=0;points=[];" vertex="1" connectable="0" parent="QwGlDeZlxbwuZ_G16_js-23">
          <mxGeometry x="-0.3346" y="4" relative="1" as="geometry">
            <mxPoint as="offset" />
          </mxGeometry>
        </mxCell>
        <mxCell id="QwGlDeZlxbwuZ_G16_js-9" value="&lt;b&gt;&lt;font style=&quot;font-size: 18px;&quot;&gt;S&#39;inscrire&lt;/font&gt;&lt;/b&gt;" style="ellipse;whiteSpace=wrap;html=1;" vertex="1" parent="1">
          <mxGeometry x="480" y="120" width="140" height="70" as="geometry" />
        </mxCell>
        <mxCell id="QwGlDeZlxbwuZ_G16_js-10" value="&lt;b&gt;&lt;font style=&quot;font-size: 18px;&quot;&gt;Fournir le login (email)&lt;/font&gt;&lt;/b&gt;" style="ellipse;whiteSpace=wrap;html=1;" vertex="1" parent="1">
          <mxGeometry x="220" y="670" width="160" height="70" as="geometry" />
        </mxCell>
        <mxCell id="QwGlDeZlxbwuZ_G16_js-26" style="rounded=0;orthogonalLoop=1;jettySize=auto;html=1;exitX=0.5;exitY=1;exitDx=0;exitDy=0;endArrow=open;endFill=0;dashed=1;dashPattern=8 8;endSize=10;" edge="1" parent="1" source="QwGlDeZlxbwuZ_G16_js-11" target="QwGlDeZlxbwuZ_G16_js-6">
          <mxGeometry relative="1" as="geometry" />
        </mxCell>
        <mxCell id="QwGlDeZlxbwuZ_G16_js-29" value="&lt;font style=&quot;font-size: 18px;&quot;&gt;&amp;lt;&amp;lt;include&amp;gt;&amp;gt;&lt;/font&gt;" style="edgeLabel;html=1;align=center;verticalAlign=middle;resizable=0;points=[];" vertex="1" connectable="0" parent="QwGlDeZlxbwuZ_G16_js-26">
          <mxGeometry x="-0.0401" y="6" relative="1" as="geometry">
            <mxPoint as="offset" />
          </mxGeometry>
        </mxCell>
        <mxCell id="QwGlDeZlxbwuZ_G16_js-27" style="rounded=0;orthogonalLoop=1;jettySize=auto;html=1;exitX=0.5;exitY=1;exitDx=0;exitDy=0;entryX=0.5;entryY=0;entryDx=0;entryDy=0;endArrow=open;endFill=0;dashed=1;dashPattern=8 8;endSize=10;" edge="1" parent="1" source="QwGlDeZlxbwuZ_G16_js-11" target="QwGlDeZlxbwuZ_G16_js-10">
          <mxGeometry relative="1" as="geometry" />
        </mxCell>
        <mxCell id="QwGlDeZlxbwuZ_G16_js-30" value="&lt;font style=&quot;font-size: 18px;&quot;&gt;&amp;lt;&amp;lt;include&amp;gt;&amp;gt;&lt;/font&gt;" style="edgeLabel;html=1;align=center;verticalAlign=middle;resizable=0;points=[];" vertex="1" connectable="0" parent="QwGlDeZlxbwuZ_G16_js-27">
          <mxGeometry x="0.141" y="2" relative="1" as="geometry">
            <mxPoint x="1" as="offset" />
          </mxGeometry>
        </mxCell>
        <mxCell id="QwGlDeZlxbwuZ_G16_js-11" value="&lt;font style=&quot;font-size: 18px;&quot;&gt;&lt;b&gt;authentifier avec email&lt;/b&gt;&lt;/font&gt;" style="ellipse;whiteSpace=wrap;html=1;" vertex="1" parent="1">
          <mxGeometry x="360" y="515" width="140" height="70" as="geometry" />
        </mxCell>
        <mxCell id="QwGlDeZlxbwuZ_G16_js-20" style="rounded=0;orthogonalLoop=1;jettySize=auto;html=1;exitX=0.5;exitY=0.5;exitDx=0;exitDy=0;exitPerimeter=0;entryX=1;entryY=0.286;entryDx=0;entryDy=0;entryPerimeter=0;endArrow=none;endFill=0;" edge="1" parent="1" source="QwGlDeZlxbwuZ_G16_js-2" target="QwGlDeZlxbwuZ_G16_js-8">
          <mxGeometry relative="1" as="geometry" />
        </mxCell>
        <mxCell id="QwGlDeZlxbwuZ_G16_js-21" style="rounded=0;orthogonalLoop=1;jettySize=auto;html=1;exitX=0.5;exitY=0.5;exitDx=0;exitDy=0;exitPerimeter=0;entryX=1;entryY=0.714;entryDx=0;entryDy=0;entryPerimeter=0;endArrow=none;endFill=0;" edge="1" parent="1" source="QwGlDeZlxbwuZ_G16_js-3" target="QwGlDeZlxbwuZ_G16_js-9">
          <mxGeometry relative="1" as="geometry" />
        </mxCell>
        <mxCell id="QwGlDeZlxbwuZ_G16_js-24" style="rounded=0;orthogonalLoop=1;jettySize=auto;html=1;exitX=0.5;exitY=0;exitDx=0;exitDy=0;entryX=0.73;entryY=1.005;entryDx=0;entryDy=0;entryPerimeter=0;endArrow=block;endFill=0;targetPerimeterSpacing=0;endSize=20;" edge="1" parent="1" source="QwGlDeZlxbwuZ_G16_js-7" target="QwGlDeZlxbwuZ_G16_js-8">
          <mxGeometry relative="1" as="geometry" />
        </mxCell>
        <mxCell id="QwGlDeZlxbwuZ_G16_js-25" style="rounded=0;orthogonalLoop=1;jettySize=auto;html=1;exitX=0.5;exitY=0;exitDx=0;exitDy=0;entryX=0.429;entryY=1;entryDx=0;entryDy=0;entryPerimeter=0;endArrow=block;endFill=0;endSize=21;" edge="1" parent="1" source="QwGlDeZlxbwuZ_G16_js-11" target="QwGlDeZlxbwuZ_G16_js-8">
          <mxGeometry relative="1" as="geometry" />
        </mxCell>
      </root>
    </mxGraphModel>
  </diagram>
</mxfile>
